<svg viewBox="0 0 32 32" xmlns="http://www.w3.org/2000/svg"><path d="M16 31.625C7.384 31.625.375 24.615.375 16 .375 7.384 7.384.375 16 .375 24.615.375 31.625 7.384 31.625 16c0 8.615-7.01 15.625-15.625 15.625z" fill="#FFF"/><path d="M16 .75C24.409.75 31.25 7.591 31.25 16S24.409 31.25 16 31.25.75 24.409.75 16 7.591.75 16 .75M16 0C7.163 0 0 7.163 0 16c0 8.836 7.163 16 16 16s16-7.164 16-16c0-8.837-7.163-16-16-16z" fill="#E5E5E5"/><path d="M16 5.534a6.754 6.754 0 0 0-6.284 9.235l.205.465L16 26.466l6.087-11.249.185-.419a6.71 6.71 0 0 0 .482-2.511A6.754 6.754 0 0 0 16 5.534zm0 9.68a2.988 2.988 0 1 1 0-5.977 2.988 2.988 0 0 1 0 5.977z" fill="#333"/></svg>