<?xml version="1.0" ?><svg enable-background="new 0 0 32 32" version="1.1" viewBox="0 0 32 32" xml:space="preserve" xmlns="http://www.w3.org/2000/svg" xmlns:xlink="http://www.w3.org/1999/xlink"><g id="Style_2_copy_3"><g><g><g><path d="M16,31.625c-8.616,0-15.625-7.01-15.625-15.625C0.375,7.384,7.384,0.375,16,0.375      c8.615,0,15.625,7.009,15.625,15.625C31.625,24.615,24.615,31.625,16,31.625z" fill="#FFFFFF"/><path d="M16,0.75c8.409,0,15.25,6.841,15.25,15.25S24.409,31.25,16,31.25S0.75,24.409,0.75,16      S7.591,0.75,16,0.75 M16,0C7.163,0,0,7.163,0,16c0,8.836,7.163,16,16,16s16-7.164,16-16C32,7.163,24.837,0,16,0L16,0z" fill="#E5E5E5"/></g></g><path d="M16,5.534c-3.73,0-6.754,3.024-6.754,6.754c0,0.625,0.085,1.231,0.244,1.806    c0.064,0.23,0.139,0.456,0.226,0.675l0.205,0.465L16,26.466l6.087-11.249l0.185-0.419c0.092-0.229,0.171-0.464,0.238-0.705    c0.159-0.575,0.244-1.18,0.244-1.806C22.754,8.558,19.73,5.534,16,5.534z M16,15.214c-1.65,0-2.988-1.338-2.988-2.988    c0-1.65,1.338-2.988,2.988-2.988c1.65,0,2.988,1.338,2.988,2.988C18.988,13.877,17.65,15.214,16,15.214z" fill="#333333"/></g></g></svg>